<?xml version="1.0" encoding="UTF-8" ?>
<!DOCTYPE svg PUBLIC "-//W3C//DTD SVG 1.1//EN" "http://www.w3.org/Graphics/SVG/1.1/DTD/svg11.dtd">
<svg width="67pt" height="82pt" viewBox="0 0 67 82" version="1.1" xmlns="http://www.w3.org/2000/svg">
<g id="#ffffffff">
<path fill="#ffffff" opacity="1.00" d=" M 26.63 0.00 L 37.11 0.00 C 42.66 0.68 48.43 2.32 52.49 6.39 C 55.18 8.92 56.67 12.39 57.61 15.90 L 55.72 16.42 C 56.22 16.39 57.24 16.33 57.74 16.30 C 57.66 18.66 58.15 20.97 58.78 23.24 L 58.58 21.01 C 61.74 21.05 63.51 23.41 63.07 26.48 L 65.37 25.67 C 63.94 29.64 62.76 34.49 64.74 38.42 C 65.64 34.52 64.00 30.12 67.00 26.84 L 67.00 25.61 L 66.03 33.20 L 66.15 38.26 L 65.40 40.30 C 64.84 40.41 63.73 40.63 63.17 40.73 C 62.98 44.83 58.64 44.15 55.77 43.95 C 53.01 48.32 48.41 51.07 43.35 51.87 C 49.50 48.24 52.42 41.01 52.15 34.07 C 52.55 29.74 49.06 26.45 45.97 23.97 C 38.28 18.53 28.29 18.04 19.23 19.04 C 17.37 25.17 15.55 31.46 15.63 37.93 C 15.80 43.93 19.60 49.43 25.09 51.81 C 19.92 50.51 15.02 47.97 11.60 43.78 C 8.54 43.94 3.53 45.36 3.02 40.93 C 2.01 40.40 1.01 39.87 0.00 39.34 L 0.00 27.76 C 0.90 26.89 1.95 26.26 3.14 25.88 C 2.58 22.48 5.45 20.89 8.47 21.15 C 8.37 20.38 8.15 18.84 8.04 18.07 L 10.19 18.90 C 9.71 18.58 8.75 17.94 8.27 17.62 C 9.05 14.35 10.10 11.04 12.35 8.46 C 16.61 3.28 23.35 0.94 29.82 0.11 L 26.63 0.00 M 17.63 5.68 C 13.22 8.31 10.43 13.00 9.53 17.99 C 15.44 5.88 30.79 0.80 43.24 4.74 C 48.73 6.51 52.93 10.72 56.10 15.38 C 54.55 8.68 48.62 3.84 42.06 2.43 C 33.93 0.64 24.85 1.26 17.63 5.68 M 1.11 28.52 C 0.85 31.72 0.78 34.94 1.19 38.14 C 1.45 37.96 1.96 37.61 2.22 37.43 C 2.38 34.75 2.39 32.04 2.25 29.35 C 1.97 29.15 1.40 28.73 1.11 28.52 Z" />
<path fill="#ffffff" opacity="1.00" d=" M 20.89 32.99 C 21.36 30.48 25.39 30.14 25.49 32.98 C 25.58 35.99 21.23 35.68 20.89 32.99 Z" />
<path fill="#ffffff" opacity="1.00" d=" M 42.28 31.54 C 43.94 29.46 47.33 32.45 45.48 34.41 C 43.72 36.87 40.10 33.47 42.28 31.54 Z" />
<path fill="#ffffff" opacity="1.00" d=" M 25.36 44.41 C 31.15 46.13 37.25 45.55 43.07 44.34 C 40.50 46.40 37.47 48.27 34.05 48.12 C 30.76 48.12 27.84 46.40 25.36 44.41 Z" />
<path fill="#ffffff" opacity="1.00" d=" M 5.71 67.75 C 11.56 59.96 21.15 55.77 30.69 54.91 C 30.69 56.86 30.69 58.80 30.70 60.75 C 28.26 62.62 25.83 64.49 23.39 66.36 C 26.91 70.92 29.91 75.88 33.75 80.18 C 37.11 75.53 40.65 71.01 44.08 66.41 C 41.52 64.54 38.97 62.65 36.42 60.76 C 36.43 58.79 36.44 56.83 36.44 54.87 C 45.08 55.52 53.75 58.78 59.84 65.10 C 63.86 69.14 66.48 74.55 67.00 80.25 L 67.00 82.00 L 0.70 82.00 C 0.91 76.88 2.54 71.81 5.71 67.75 Z" />
</g>
</svg>
