<?xml version="1.0" encoding="UTF-8" ?>
<!DOCTYPE svg PUBLIC "-//W3C//DTD SVG 1.1//EN" "http://www.w3.org/Graphics/SVG/1.1/DTD/svg11.dtd">
<svg width="102pt" height="74pt" viewBox="0 0 102 74" version="1.1" xmlns="http://www.w3.org/2000/svg">
<g id="#ffffffff">
<path fill="#ffffff" opacity="1.00" d=" M 50.02 0.00 L 51.46 0.00 C 55.65 5.99 59.48 12.24 63.54 18.32 C 55.52 23.48 47.50 28.63 39.49 33.78 C 35.48 27.66 31.48 21.53 27.48 15.39 C 35.40 10.26 43.41 5.27 51.26 0.03 L 50.02 0.00 M 49.03 5.81 C 49.80 10.75 51.37 15.52 52.48 20.39 C 52.98 20.10 53.98 19.52 54.48 19.24 C 53.55 15.46 52.75 11.65 51.56 7.95 C 51.27 6.71 50.21 6.06 49.03 5.81 M 45.05 9.08 C 46.24 13.70 47.41 18.32 48.57 22.95 C 49.24 22.50 49.92 22.06 50.59 21.61 C 49.38 17.03 48.25 12.44 47.07 7.85 C 46.57 8.16 45.56 8.78 45.05 9.08 M 41.36 11.47 C 41.88 16.16 43.64 20.65 44.57 25.28 C 45.06 24.97 46.05 24.35 46.54 24.04 C 45.54 19.41 44.24 14.85 43.09 10.26 C 42.66 10.56 41.79 11.17 41.36 11.47 M 37.17 14.06 C 38.35 18.68 39.53 23.31 40.69 27.94 C 41.37 27.55 42.04 27.16 42.72 26.76 C 41.58 22.17 40.38 17.59 39.26 13.00 C 38.74 13.26 37.69 13.79 37.17 14.06 M 33.39 16.56 C 34.56 18.39 35.73 20.22 36.90 22.05 C 36.39 19.82 35.83 17.61 35.28 15.40 C 34.65 15.78 34.02 16.17 33.39 16.56 Z" />
<path fill="#ffffff" opacity="1.00" d=" M 0.00 17.18 C 5.66 14.27 11.31 11.36 16.97 8.45 C 25.56 20.04 34.54 31.37 42.88 43.14 C 44.42 42.93 45.96 42.72 47.50 42.58 C 44.29 40.86 42.91 37.32 40.95 34.45 C 48.97 29.32 56.97 24.16 64.98 19.02 C 68.98 25.15 72.99 31.27 76.98 37.42 C 71.69 40.60 66.79 44.43 61.22 47.11 C 61.67 47.17 62.13 47.22 62.59 47.28 C 73.31 41.60 84.15 36.16 94.91 30.58 C 95.75 32.17 96.59 33.77 97.42 35.37 C 86.81 40.93 76.05 46.21 65.51 51.91 C 65.88 54.95 66.85 58.03 66.05 61.11 C 64.80 67.97 58.64 73.32 51.76 74.00 L 48.47 74.00 C 43.17 73.33 38.20 70.16 35.77 65.34 C 32.23 58.78 33.98 49.45 40.48 45.39 C 39.56 45.38 38.64 45.36 37.72 45.34 C 30.57 35.13 22.77 25.38 15.37 15.36 C 11.06 17.58 6.75 19.80 2.44 22.01 C 1.61 20.44 0.77 18.89 0.00 17.30 L 0.00 17.18 M 62.67 24.60 C 62.95 29.74 64.91 34.61 66.01 39.61 C 66.46 39.19 67.36 38.36 67.81 37.95 C 67.22 34.92 66.35 31.95 65.62 28.96 C 65.22 27.22 64.44 25.33 62.67 24.60 M 58.49 28.35 C 59.76 32.88 60.84 37.47 62.03 42.02 C 62.53 41.70 63.53 41.06 64.03 40.74 C 62.84 36.10 61.68 31.46 60.49 26.83 C 59.82 27.33 59.15 27.83 58.49 28.35 M 54.56 30.76 C 55.80 35.05 56.61 39.46 57.97 43.72 L 59.31 44.67 C 60.41 39.54 57.27 34.50 56.59 29.42 C 56.09 29.75 55.07 30.42 54.56 30.76 M 50.64 33.30 C 51.41 36.21 52.15 39.13 52.88 42.06 C 53.75 42.29 54.61 42.53 55.48 42.77 C 54.42 39.17 53.57 35.52 52.63 31.90 C 51.97 32.36 51.30 32.83 50.64 33.30 M 46.88 35.46 C 47.95 37.41 49.15 39.28 50.44 41.09 C 49.86 38.89 49.27 36.70 48.71 34.50 C 48.25 34.74 47.34 35.22 46.88 35.46 M 46.45 49.60 C 40.18 52.03 39.08 61.52 44.68 65.27 C 49.97 69.53 58.86 65.76 59.29 58.93 C 60.35 52.19 52.52 46.64 46.45 49.60 Z" />
<path fill="#ffffff" opacity="1.00" d=" M 92.87 39.81 C 96.43 37.69 101.13 40.09 102.00 44.02 L 102.00 46.32 C 101.15 50.42 96.07 52.75 92.53 50.33 C 88.65 48.10 88.83 41.77 92.87 39.81 M 93.37 42.59 C 91.69 44.08 91.97 47.05 93.93 48.17 C 96.14 49.82 99.66 47.80 99.45 45.08 C 99.52 42.11 95.41 40.39 93.37 42.59 Z" />
</g>
</svg>
