<?xml version="1.0" encoding="UTF-8" ?>
<!DOCTYPE svg PUBLIC "-//W3C//DTD SVG 1.1//EN" "http://www.w3.org/Graphics/SVG/1.1/DTD/svg11.dtd">
<svg width="44pt" height="76pt" viewBox="0 0 44 76" version="1.1" xmlns="http://www.w3.org/2000/svg">
<g id="#ffffffff">
<path fill="#ffffff" opacity="1.00" d=" M 7.17 0.00 L 36.66 0.00 C 40.29 0.46 43.21 3.22 44.00 6.78 L 44.00 69.10 C 43.32 72.69 40.40 75.42 36.82 76.00 L 7.35 76.00 C 3.72 75.55 0.79 72.79 0.00 69.22 L 0.00 6.90 C 0.68 3.31 3.59 0.58 7.17 0.00 M 3.06 10.37 C 3.06 13.87 3.10 17.36 3.00 20.85 C 5.21 18.83 7.92 17.56 10.81 16.87 C 10.81 14.77 10.81 12.67 10.81 10.57 C 12.27 10.57 13.73 10.57 15.19 10.57 C 15.19 12.63 15.19 14.68 15.18 16.74 C 18.27 17.01 21.31 17.73 24.12 19.07 C 23.55 20.57 22.98 22.06 22.41 23.56 C 18.44 21.66 13.53 20.23 9.34 22.30 C 6.22 23.84 5.43 28.61 8.16 30.90 C 12.26 34.45 18.12 35.10 22.12 38.83 C 26.87 42.88 26.62 51.08 21.96 55.11 C 19.99 56.98 17.32 57.74 14.77 58.45 C 14.81 60.78 14.78 63.12 14.19 65.39 C 13.36 65.38 11.69 65.35 10.86 65.34 C 10.35 63.16 10.32 60.93 10.35 58.70 C 7.87 58.42 5.43 57.96 3.02 57.32 C 3.05 59.17 3.06 61.02 3.07 62.88 C 5.41 62.88 7.75 62.88 10.09 62.86 C 10.27 63.52 10.64 64.85 10.82 65.51 C 11.95 65.53 13.08 65.54 14.21 65.55 C 14.40 64.88 14.78 63.53 14.97 62.86 C 23.64 62.89 32.32 62.87 41.00 62.88 C 41.00 45.38 41.00 27.88 41.00 10.37 C 28.35 10.37 15.71 10.38 3.06 10.37 M 3.03 34.42 C 3.11 40.19 3.03 45.96 3.08 51.74 C 2.38 51.55 0.99 51.19 0.30 51.01 C 5.22 52.80 10.83 55.45 16.00 52.96 C 19.97 51.30 20.74 45.45 17.44 42.74 C 13.14 39.13 7.04 38.51 3.03 34.42 M 22.20 68.07 C 20.51 68.85 20.02 71.30 21.36 72.63 C 22.66 74.13 25.46 73.77 26.21 71.89 C 27.64 69.56 24.48 66.70 22.20 68.07 Z" />
</g>
</svg>
