<?xml version="1.0" encoding="UTF-8" ?>
<!DOCTYPE svg PUBLIC "-//W3C//DTD SVG 1.1//EN" "http://www.w3.org/Graphics/SVG/1.1/DTD/svg11.dtd">
<svg width="68pt" height="84pt" viewBox="0 0 68 84" version="1.1" xmlns="http://www.w3.org/2000/svg">
<g id="#ffffffff">
<path fill="#ffffff" opacity="1.00" d=" M 28.12 0.00 L 30.96 0.00 C 32.42 1.74 35.09 1.74 36.55 0.00 L 39.67 0.00 C 42.52 1.25 42.22 4.59 42.45 7.18 C 36.68 7.19 30.90 7.21 25.13 7.16 C 25.11 4.44 25.72 1.63 28.12 0.00 Z" />
<path fill="#ffffff" opacity="1.00" d=" M 9.17 5.30 C 13.71 3.69 18.61 4.58 23.32 4.38 C 23.31 5.04 23.31 6.35 23.31 7.00 C 18.46 7.19 13.12 6.13 8.77 8.86 C 4.52 11.30 2.05 16.19 2.20 21.05 C 2.20 36.69 2.14 52.34 2.22 67.99 C 2.07 74.92 8.05 81.27 15.02 81.37 C 26.36 81.55 37.70 81.36 49.03 81.46 C 52.58 81.50 56.38 81.43 59.45 79.39 C 63.66 76.86 66.01 71.94 65.81 67.09 C 65.81 51.74 65.82 36.39 65.81 21.05 C 65.95 16.20 63.49 11.31 59.24 8.87 C 54.89 6.14 49.54 7.18 44.69 7.00 C 44.69 6.35 44.69 5.04 44.68 4.38 C 48.58 4.45 52.49 4.11 56.36 4.62 C 62.57 5.62 67.44 11.19 68.00 17.39 L 68.00 71.02 C 67.43 77.69 61.85 83.30 55.21 84.00 L 12.98 84.00 C 6.31 83.43 0.70 77.85 0.00 71.21 L 0.00 17.44 C 0.50 12.10 4.09 7.15 9.17 5.30 Z" />
<path fill="#ffffff" opacity="1.00" d=" M 10.31 18.66 C 10.34 17.37 10.40 16.08 10.52 14.79 C 15.29 15.47 20.11 15.11 24.90 15.11 C 24.86 16.30 24.82 17.49 24.79 18.67 C 19.96 18.57 15.13 18.59 10.31 18.66 Z" />
<path fill="#ffffff" opacity="1.00" d=" M 34.00 14.81 C 41.38 14.81 48.75 14.81 56.13 14.81 C 56.13 15.72 56.13 17.53 56.13 18.44 C 48.75 18.44 41.38 18.44 34.00 18.44 C 34.00 17.53 34.00 15.72 34.00 14.81 Z" />
<path fill="#ffffff" opacity="1.00" d=" M 34.00 22.56 C 41.38 22.56 48.75 22.56 56.13 22.56 C 56.13 23.47 56.13 25.28 56.13 26.19 C 48.75 26.19 41.37 26.19 34.00 26.19 C 34.00 25.28 34.00 23.47 34.00 22.56 Z" />
<path fill="#ffffff" opacity="1.00" d=" M 14.91 39.73 C 18.19 35.47 21.46 31.19 24.73 26.92 C 25.85 27.42 26.98 27.93 28.10 28.44 C 23.72 34.36 19.31 40.25 14.91 46.16 C 12.90 43.34 10.89 40.52 8.88 37.70 C 9.80 37.09 10.72 36.48 11.64 35.87 C 12.73 37.16 13.82 38.44 14.91 39.73 Z" />
<path fill="#ffffff" opacity="1.00" d=" M 34.00 31.12 C 41.37 31.12 48.75 31.12 56.13 31.12 C 56.12 32.33 56.12 33.54 56.13 34.75 C 48.75 34.75 41.38 34.75 34.00 34.75 C 34.00 33.54 34.00 32.33 34.00 31.12 Z" />
<path fill="#ffffff" opacity="1.00" d=" M 34.00 37.06 C 41.37 37.06 48.75 37.06 56.13 37.06 C 56.12 38.29 56.12 39.52 56.13 40.75 C 48.75 40.75 41.38 40.75 34.00 40.76 C 34.00 39.52 34.00 38.29 34.00 37.06 Z" />
<path fill="#ffffff" opacity="1.00" d=" M 34.00 43.69 C 41.38 43.69 48.75 43.69 56.13 43.69 C 56.13 44.59 56.13 46.41 56.13 47.31 C 48.75 47.31 41.38 47.31 34.00 47.31 C 34.00 46.41 34.00 44.59 34.00 43.69 Z" />
<path fill="#ffffff" opacity="1.00" d=" M 10.73 59.00 C 13.58 59.00 16.42 59.00 19.26 59.00 C 19.27 59.62 19.27 60.85 19.27 61.47 C 17.52 61.47 15.76 61.47 14.00 61.46 C 14.00 65.31 14.00 69.15 14.00 73.00 C 13.18 73.00 11.55 73.00 10.73 73.00 C 10.73 68.33 10.73 63.67 10.73 59.00 Z" />
<path fill="#ffffff" opacity="1.00" d=" M 23.49 59.73 C 25.74 58.72 28.55 58.83 30.52 60.39 C 34.27 63.30 33.66 69.98 29.52 72.26 C 26.81 73.43 23.19 73.16 21.29 70.69 C 18.56 67.43 19.46 61.50 23.49 59.73 M 24.33 62.29 C 22.09 64.60 22.48 69.66 25.97 70.65 C 29.44 70.67 30.41 66.47 29.38 63.81 C 28.88 61.68 25.88 60.54 24.33 62.29 Z" />
<path fill="#ffffff" opacity="1.00" d=" M 37.52 60.49 C 39.88 58.74 42.98 58.94 45.73 59.37 C 45.58 59.99 45.27 61.23 45.12 61.85 C 43.47 61.65 41.70 61.17 40.12 62.00 C 37.24 63.53 37.20 68.45 40.11 69.97 C 41.66 70.95 43.50 70.29 45.17 70.20 C 45.30 70.98 45.43 71.77 45.56 72.55 C 42.84 73.05 39.78 73.28 37.37 71.66 C 33.75 69.11 33.88 62.97 37.52 60.49 Z" />
<path fill="#ffffff" opacity="1.00" d=" M 46.28 59.00 C 49.85 59.00 53.43 59.00 57.00 59.00 C 57.00 59.62 57.00 60.86 56.99 61.47 C 56.06 61.47 54.20 61.46 53.27 61.46 C 53.27 65.30 53.27 69.15 53.27 73.00 C 52.45 73.00 50.82 73.00 50.00 73.00 C 50.00 69.15 50.00 65.30 49.99 61.44 C 49.05 61.46 47.18 61.49 46.24 61.51 C 46.25 60.88 46.27 59.63 46.28 59.00 Z" />
</g>
</svg>
