<?xml version="1.0" encoding="UTF-8" ?>
<!DOCTYPE svg PUBLIC "-//W3C//DTD SVG 1.1//EN" "http://www.w3.org/Graphics/SVG/1.1/DTD/svg11.dtd">
<svg width="74pt" height="74pt" viewBox="0 0 74 74" version="1.1" xmlns="http://www.w3.org/2000/svg">
<path fill="#da0b63" d=" M 35.12 0.00 L 38.33 0.00 C 47.57 0.36 56.62 4.27 63.13 10.84 C 69.55 17.16 73.36 25.90 74.00 34.85 L 74.00 39.70 C 73.12 48.92 69.01 57.89 62.10 64.14 C 55.84 70.06 47.42 73.47 38.84 74.00 L 34.81 74.00 C 26.83 73.38 18.98 70.38 12.94 65.07 C 5.32 58.66 0.67 49.02 0.00 39.11 L 0.00 34.33 C 0.83 25.59 4.54 17.07 10.83 10.88 C 17.22 4.41 26.06 0.54 35.12 0.00 Z" />
<path fill="#fff" d=" M 31.82 8.94 C 36.77 11.81 41.72 14.70 46.67 17.60 C 41.73 20.50 36.78 23.38 31.84 26.27 C 31.81 24.84 31.79 23.42 31.76 21.99 C 23.12 23.93 17.11 33.47 19.79 42.05 C 22.05 51.32 33.56 56.66 42.00 52.04 C 50.24 48.17 53.18 37.16 48.63 29.43 C 51.00 28.03 53.40 26.68 55.79 25.31 C 58.15 29.85 59.50 34.98 58.90 40.12 C 58.16 48.84 52.27 56.88 44.16 60.18 C 36.35 63.54 26.79 62.20 20.18 56.84 C 12.65 51.03 9.27 40.58 11.78 31.43 C 14.07 22.12 22.35 14.89 31.81 13.58 C 31.81 12.04 31.81 10.49 31.82 8.94 Z" />

</svg>

